<mxfile host="65bd71144e">
    <diagram name="Page-1" id="q86eNr94cBDuVsGkZMzl">
        <mxGraphModel dx="2475" dy="1055" grid="0" gridSize="10" guides="1" tooltips="1" connect="1" arrows="1" fold="1" page="0" pageScale="1" pageWidth="850" pageHeight="1100" math="0" shadow="0">
            <root>
                <mxCell id="0"/>
                <mxCell id="1" parent="0"/>
                <mxCell id="udy7D6bEetvilHj6OVsd-2" value="Apple Portal &amp;amp; Developer Portal" style="rounded=1;whiteSpace=wrap;html=1;labelPosition=center;verticalLabelPosition=top;align=center;verticalAlign=bottom;fillColor=#f5f5f5;strokeColor=#666666;gradientColor=#b3b3b3;" parent="1" vertex="1">
                    <mxGeometry x="33.56" y="187" width="677" height="404" as="geometry"/>
                </mxCell>
                <mxCell id="100" value="App Store (審查)" style="rounded=1;whiteSpace=wrap;html=1;labelPosition=center;verticalLabelPosition=top;align=center;verticalAlign=bottom;fillColor=#f5f5f5;strokeColor=#666666;gradientColor=#b3b3b3;" parent="1" vertex="1">
                    <mxGeometry x="-438" y="-316" width="290" height="391" as="geometry"/>
                </mxCell>
                <mxCell id="103" value="App Store Connect&lt;br&gt;Test Flight ( Production 環境)" style="rounded=1;whiteSpace=wrap;html=1;labelPosition=center;verticalLabelPosition=top;align=center;verticalAlign=bottom;fillColor=#f5f5f5;gradientColor=#b3b3b3;strokeColor=#666666;" parent="1" vertex="1">
                    <mxGeometry x="-1001" y="-322" width="522" height="394" as="geometry"/>
                </mxCell>
                <mxCell id="54" value="App admin Developer ( Apple ID: 001 )" style="rounded=0;whiteSpace=wrap;html=1;labelPosition=center;verticalLabelPosition=bottom;align=center;verticalAlign=top;" parent="1" vertex="1">
                    <mxGeometry x="307" y="783" width="575" height="274" as="geometry"/>
                </mxCell>
                <mxCell id="79" value="" style="group;fillColor=#fff2cc;strokeColor=#d6b656;gradientColor=none;container=0;" parent="1" vertex="1" connectable="0">
                    <mxGeometry x="307" y="783" width="575" height="274" as="geometry"/>
                </mxCell>
                <mxCell id="142" style="edgeStyle=none;html=1;entryX=1;entryY=0.5;entryDx=0;entryDy=0;fontColor=#000000;exitX=0;exitY=0.25;exitDx=0;exitDy=0;" parent="1" source="134" target="106" edge="1">
                    <mxGeometry relative="1" as="geometry"/>
                </mxCell>
                <mxCell id="143" value="download iOS App&lt;br&gt;(有時候需要在停機時間測試)" style="edgeLabel;html=1;align=center;verticalAlign=middle;resizable=0;points=[];fontColor=#000000;" parent="142" vertex="1" connectable="0">
                    <mxGeometry x="0.2894" y="-2" relative="1" as="geometry">
                        <mxPoint x="-24" y="-21" as="offset"/>
                    </mxGeometry>
                </mxCell>
                <mxCell id="134" value="內側 Alpha&lt;br&gt;Production 的設定" style="rounded=0;whiteSpace=wrap;html=1;labelBackgroundColor=#FFFFFF;fontColor=#000000;gradientColor=none;labelPosition=center;verticalLabelPosition=top;align=center;verticalAlign=bottom;" parent="1" vertex="1">
                    <mxGeometry x="-713" y="-174.87" width="157" height="99.73" as="geometry"/>
                </mxCell>
                <mxCell id="44" value="Your macbook (Apple ID: 002 )" style="rounded=0;whiteSpace=wrap;html=1;labelPosition=center;verticalLabelPosition=bottom;align=center;verticalAlign=top;fillColor=#fff2cc;strokeColor=#d6b656;" parent="1" vertex="1">
                    <mxGeometry x="-885" y="705.5" width="665" height="345.5" as="geometry"/>
                </mxCell>
                <mxCell id="Pc43Av3YYR_3kN6ACJ1--158" style="rounded=0;orthogonalLoop=1;jettySize=auto;html=1;entryX=1;entryY=0.5;entryDx=0;entryDy=0;" parent="1" source="130" target="136" edge="1">
                    <mxGeometry relative="1" as="geometry"/>
                </mxCell>
                <mxCell id="130" value="" style="rounded=0;whiteSpace=wrap;html=1;labelBackgroundColor=#FFFFFF;fontColor=#000000;gradientColor=none;" parent="1" vertex="1">
                    <mxGeometry x="-675" y="792.5" width="253" height="102" as="geometry"/>
                </mxCell>
                <mxCell id="105" value="App Store (發布)" style="rounded=1;whiteSpace=wrap;html=1;labelPosition=center;verticalLabelPosition=top;align=center;verticalAlign=bottom;fillColor=#f5f5f5;strokeColor=#666666;gradientColor=#b3b3b3;" parent="1" vertex="1">
                    <mxGeometry x="27" y="-298" width="293" height="194" as="geometry"/>
                </mxCell>
                <mxCell id="81" value="CI/CD Pipeline" style="rounded=0;whiteSpace=wrap;html=1;labelPosition=center;verticalLabelPosition=bottom;align=center;verticalAlign=top;fillColor=#fff2cc;strokeColor=#d6b656;" parent="1" vertex="1">
                    <mxGeometry x="-182" y="1392" width="246" height="168" as="geometry"/>
                </mxCell>
                <mxCell id="71" style="edgeStyle=none;html=1;entryX=0.25;entryY=0;entryDx=0;entryDy=0;startArrow=none;startFill=0;endArrow=classic;endFill=1;exitX=0;exitY=0.25;exitDx=0;exitDy=0;" parent="1" source="54" target="70" edge="1">
                    <mxGeometry relative="1" as="geometry"/>
                </mxCell>
                <mxCell id="72" value="export" style="edgeLabel;html=1;align=center;verticalAlign=middle;resizable=0;points=[];" parent="71" vertex="1" connectable="0">
                    <mxGeometry x="0.2194" y="1" relative="1" as="geometry">
                        <mxPoint as="offset"/>
                    </mxGeometry>
                </mxCell>
                <mxCell id="udy7D6bEetvilHj6OVsd-4" value="" style="rounded=0;orthogonalLoop=1;jettySize=auto;html=1;entryX=0;entryY=0.5;entryDx=0;entryDy=0;exitX=1;exitY=0.5;exitDx=0;exitDy=0;" parent="1" source="134" target="53" edge="1">
                    <mxGeometry relative="1" as="geometry"/>
                </mxCell>
                <mxCell id="102" value="upload / 送審" style="edgeLabel;html=1;align=center;verticalAlign=middle;resizable=0;points=[];" parent="udy7D6bEetvilHj6OVsd-4" vertex="1" connectable="0">
                    <mxGeometry x="-0.1174" relative="1" as="geometry">
                        <mxPoint as="offset"/>
                    </mxGeometry>
                </mxCell>
                <mxCell id="7" value="&lt;span style=&quot;&quot;&gt;Public Key&lt;/span&gt;" style="rounded=0;whiteSpace=wrap;html=1;" parent="1" vertex="1">
                    <mxGeometry x="558" y="933" width="74" height="38" as="geometry"/>
                </mxCell>
                <mxCell id="152" style="edgeStyle=none;html=1;entryX=1;entryY=0.25;entryDx=0;entryDy=0;fontColor=#000000;startArrow=none;startFill=0;endArrow=classic;endFill=1;dashed=1;" parent="1" source="8" target="70" edge="1">
                    <mxGeometry relative="1" as="geometry"/>
                </mxCell>
                <mxCell id="8" value="&lt;span style=&quot;&quot;&gt;Private Key&lt;/span&gt;" style="rounded=0;whiteSpace=wrap;html=1;" parent="1" vertex="1">
                    <mxGeometry x="558" y="895" width="74" height="38" as="geometry"/>
                </mxCell>
                <mxCell id="17" value="" style="edgeStyle=none;html=1;" parent="1" source="9" target="16" edge="1">
                    <mxGeometry relative="1" as="geometry"/>
                </mxCell>
                <mxCell id="9" value="CSR" style="rounded=0;whiteSpace=wrap;html=1;labelPosition=center;verticalLabelPosition=bottom;align=center;verticalAlign=top;" parent="1" vertex="1">
                    <mxGeometry x="708" y="917" width="113" height="74" as="geometry"/>
                </mxCell>
                <mxCell id="11" value="&lt;span style=&quot;&quot;&gt;Public Key&lt;/span&gt;" style="rounded=0;whiteSpace=wrap;html=1;" parent="1" vertex="1">
                    <mxGeometry x="727.5" y="935" width="74" height="38" as="geometry"/>
                </mxCell>
                <mxCell id="12" value="" style="edgeStyle=none;html=1;" parent="1" source="7" target="11" edge="1">
                    <mxGeometry relative="1" as="geometry"/>
                </mxCell>
                <mxCell id="28" value="generate" style="edgeLabel;html=1;align=center;verticalAlign=middle;resizable=0;points=[];" parent="12" vertex="1" connectable="0">
                    <mxGeometry x="-0.2824" y="-2" relative="1" as="geometry">
                        <mxPoint as="offset"/>
                    </mxGeometry>
                </mxCell>
                <mxCell id="22" style="edgeStyle=none;html=1;entryX=1;entryY=0.75;entryDx=0;entryDy=0;exitX=0;exitY=0.5;exitDx=0;exitDy=0;" parent="1" source="16" target="21" edge="1">
                    <mxGeometry relative="1" as="geometry">
                        <mxPoint x="423.81" y="606" as="sourcePoint"/>
                        <mxPoint x="460.56" y="503" as="targetPoint"/>
                    </mxGeometry>
                </mxCell>
                <mxCell id="16" value="CSR" style="rounded=0;whiteSpace=wrap;html=1;" parent="1" vertex="1">
                    <mxGeometry x="545.56" y="549.0699999999999" width="53" height="26" as="geometry"/>
                </mxCell>
                <mxCell id="23" style="edgeStyle=none;html=1;entryX=0.75;entryY=0;entryDx=0;entryDy=0;exitX=0.5;exitY=1;exitDx=0;exitDy=0;" parent="1" source="21" target="25" edge="1">
                    <mxGeometry relative="1" as="geometry">
                        <mxPoint x="348.31" y="732" as="targetPoint"/>
                    </mxGeometry>
                </mxCell>
                <mxCell id="68" value="download" style="edgeLabel;html=1;align=center;verticalAlign=middle;resizable=0;points=[];" parent="23" vertex="1" connectable="0">
                    <mxGeometry x="0.3766" y="-1" relative="1" as="geometry">
                        <mxPoint as="offset"/>
                    </mxGeometry>
                </mxCell>
                <mxCell id="34" style="edgeStyle=none;html=1;dashed=1;endArrow=none;endFill=0;exitX=0;exitY=0.5;exitDx=0;exitDy=0;" parent="1" source="21" target="33" edge="1">
                    <mxGeometry relative="1" as="geometry"/>
                </mxCell>
                <mxCell id="21" value="Cert" style="rounded=0;whiteSpace=wrap;html=1;labelPosition=center;verticalLabelPosition=top;align=center;verticalAlign=bottom;" parent="1" vertex="1">
                    <mxGeometry x="208.56" y="499" width="289" height="82" as="geometry"/>
                </mxCell>
                <mxCell id="30" style="edgeStyle=none;html=1;entryX=0;entryY=0.25;entryDx=0;entryDy=0;" parent="1" source="25" target="54" edge="1">
                    <mxGeometry relative="1" as="geometry">
                        <mxPoint x="215" y="835.7121212121212" as="targetPoint"/>
                    </mxGeometry>
                </mxCell>
                <mxCell id="31" value="install" style="edgeLabel;html=1;align=center;verticalAlign=middle;resizable=0;points=[];" parent="30" vertex="1" connectable="0">
                    <mxGeometry x="0.2444" y="2" relative="1" as="geometry">
                        <mxPoint x="16" y="-2" as="offset"/>
                    </mxGeometry>
                </mxCell>
                <mxCell id="25" value="&lt;span style=&quot;&quot;&gt;Cert&lt;/span&gt;" style="rounded=0;whiteSpace=wrap;html=1;" parent="1" vertex="1">
                    <mxGeometry x="390" y="830" width="74" height="38" as="geometry"/>
                </mxCell>
                <mxCell id="35" style="edgeStyle=none;html=1;entryX=1;entryY=0.5;entryDx=0;entryDy=0;" parent="1" source="33" target="36" edge="1">
                    <mxGeometry relative="1" as="geometry">
                        <mxPoint x="76.341064453125" y="357.5026092529297" as="targetPoint"/>
                    </mxGeometry>
                </mxCell>
                <mxCell id="37" value="download" style="edgeLabel;html=1;align=center;verticalAlign=middle;resizable=0;points=[];" parent="35" vertex="1" connectable="0">
                    <mxGeometry x="0.5674" y="2" relative="1" as="geometry">
                        <mxPoint x="50" y="-32" as="offset"/>
                    </mxGeometry>
                </mxCell>
                <mxCell id="33" value="Provisioning Profile" style="rounded=0;whiteSpace=wrap;html=1;" parent="1" vertex="1">
                    <mxGeometry x="78.56" y="459" width="92" height="43" as="geometry"/>
                </mxCell>
                <mxCell id="Pc43Av3YYR_3kN6ACJ1--152" style="rounded=0;orthogonalLoop=1;jettySize=auto;html=1;entryX=0.5;entryY=0;entryDx=0;entryDy=0;dashed=1;endArrow=classic;endFill=1;" parent="1" source="36" target="73" edge="1">
                    <mxGeometry relative="1" as="geometry"/>
                </mxCell>
                <mxCell id="Pc43Av3YYR_3kN6ACJ1--154" value="驗證" style="edgeLabel;html=1;align=center;verticalAlign=middle;resizable=0;points=[];" parent="Pc43Av3YYR_3kN6ACJ1--152" vertex="1" connectable="0">
                    <mxGeometry x="0.2009" y="2" relative="1" as="geometry">
                        <mxPoint as="offset"/>
                    </mxGeometry>
                </mxCell>
                <mxCell id="36" value="Provisioning Profile" style="rounded=0;whiteSpace=wrap;html=1;" parent="1" vertex="1">
                    <mxGeometry x="-329" y="804.5" width="92" height="43" as="geometry"/>
                </mxCell>
                <mxCell id="42" style="edgeStyle=none;html=1;dashed=1;endArrow=none;endFill=0;" parent="1" source="38" target="33" edge="1">
                    <mxGeometry relative="1" as="geometry"/>
                </mxCell>
                <mxCell id="46" style="edgeStyle=none;html=1;entryX=0.5;entryY=1;entryDx=0;entryDy=0;endArrow=classic;endFill=1;" parent="1" source="45" target="udy7D6bEetvilHj6OVsd-1" edge="1">
                    <mxGeometry relative="1" as="geometry"/>
                </mxCell>
                <mxCell id="47" value="build &amp;amp; sign &amp;amp; release" style="edgeLabel;html=1;align=center;verticalAlign=middle;resizable=0;points=[];" parent="46" vertex="1" connectable="0">
                    <mxGeometry x="0.4" y="-3" relative="1" as="geometry">
                        <mxPoint x="-64" y="32" as="offset"/>
                    </mxGeometry>
                </mxCell>
                <mxCell id="50" style="edgeStyle=none;html=1;entryX=0.25;entryY=1;entryDx=0;entryDy=0;startArrow=none;startFill=0;endArrow=classic;endFill=1;" parent="1" source="45" target="36" edge="1">
                    <mxGeometry relative="1" as="geometry">
                        <Array as="points"/>
                    </mxGeometry>
                </mxCell>
                <mxCell id="51" value="use" style="edgeLabel;html=1;align=center;verticalAlign=middle;resizable=0;points=[];" parent="50" vertex="1" connectable="0">
                    <mxGeometry x="-0.338" y="3" relative="1" as="geometry">
                        <mxPoint x="-9" y="-3" as="offset"/>
                    </mxGeometry>
                </mxCell>
                <mxCell id="45" value="xcode / fastlane&lt;br&gt;Source Code" style="rounded=0;whiteSpace=wrap;html=1;" parent="1" vertex="1">
                    <mxGeometry x="-536" y="975.5" width="120" height="60" as="geometry"/>
                </mxCell>
                <mxCell id="110" style="edgeStyle=none;html=1;fontColor=#000000;entryX=0.5;entryY=1;entryDx=0;entryDy=0;" parent="1" source="53" target="111" edge="1">
                    <mxGeometry relative="1" as="geometry">
                        <mxPoint x="-197.912425321691" y="-144.294189453125" as="targetPoint"/>
                    </mxGeometry>
                </mxCell>
                <mxCell id="112" value="排程 Release&lt;br&gt;審查通過後立即 Release" style="edgeLabel;html=1;align=center;verticalAlign=middle;resizable=0;points=[];fontColor=#000000;" parent="110" vertex="1" connectable="0">
                    <mxGeometry x="0.6429" y="1" relative="1" as="geometry">
                        <mxPoint x="-165" y="32" as="offset"/>
                    </mxGeometry>
                </mxCell>
                <mxCell id="53" value="App" style="rounded=1;whiteSpace=wrap;html=1;" parent="1" vertex="1">
                    <mxGeometry x="-394.5" y="-147" width="120" height="60" as="geometry"/>
                </mxCell>
                <mxCell id="62" value="&lt;span style=&quot;&quot;&gt;Public Key&lt;/span&gt;" style="rounded=0;whiteSpace=wrap;html=1;" parent="1" vertex="1">
                    <mxGeometry x="545.56" y="481" width="74" height="38" as="geometry"/>
                </mxCell>
                <mxCell id="64" value="sign" style="edgeStyle=none;html=1;entryX=1;entryY=0.25;entryDx=0;entryDy=0;startArrow=none;startFill=0;endArrow=classic;endFill=1;exitX=0;exitY=0.5;exitDx=0;exitDy=0;" parent="1" source="63" target="21" edge="1">
                    <mxGeometry relative="1" as="geometry">
                        <mxPoint x="473.80999999999955" y="483.5" as="targetPoint"/>
                    </mxGeometry>
                </mxCell>
                <mxCell id="63" value="&lt;span style=&quot;&quot;&gt;Private Key&lt;/span&gt;" style="rounded=0;whiteSpace=wrap;html=1;" parent="1" vertex="1">
                    <mxGeometry x="545.56" y="443" width="74" height="38" as="geometry"/>
                </mxCell>
                <mxCell id="57" value="" style="rounded=0;whiteSpace=wrap;html=1;labelPosition=center;verticalLabelPosition=top;align=center;verticalAlign=bottom;" parent="1" vertex="1">
                    <mxGeometry x="496.56" y="248" width="202" height="145" as="geometry"/>
                </mxCell>
                <mxCell id="58" value="&lt;span style=&quot;font-family: Helvetica; font-size: 12px; font-style: normal; font-variant-ligatures: normal; font-variant-caps: normal; font-weight: 400; letter-spacing: normal; orphans: 2; text-align: center; text-indent: 0px; text-transform: none; widows: 2; word-spacing: 0px; -webkit-text-stroke-width: 0px; text-decoration-thickness: initial; text-decoration-style: initial; text-decoration-color: initial; float: none; display: inline !important;&quot;&gt;&lt;span style=&quot;background-color: rgb(255, 255, 255);&quot;&gt;Team member Apple ID:&lt;br&gt;------------&lt;br&gt;001&lt;br&gt;002&lt;br&gt;003&lt;/span&gt;&lt;br&gt;&lt;/span&gt;" style="text;whiteSpace=wrap;html=1;" parent="1" vertex="1">
                    <mxGeometry x="596.56" y="264.17" width="93" height="112.65" as="geometry"/>
                </mxCell>
                <mxCell id="65" value="&lt;span style=&quot;font-family: Helvetica; font-size: 12px; font-style: normal; font-variant-ligatures: normal; font-variant-caps: normal; font-weight: 400; letter-spacing: normal; orphans: 2; text-align: center; text-indent: 0px; text-transform: none; widows: 2; word-spacing: 0px; -webkit-text-stroke-width: 0px; text-decoration-thickness: initial; text-decoration-style: initial; text-decoration-color: initial; float: none; display: inline !important;&quot;&gt;&lt;span style=&quot;background-color: rgb(255, 255, 255);&quot;&gt;Device IDs:&lt;br&gt;------------&lt;br&gt;device101&lt;br&gt;device102&lt;br&gt;device103&lt;/span&gt;&lt;br&gt;&lt;/span&gt;" style="text;whiteSpace=wrap;html=1;" parent="1" vertex="1">
                    <mxGeometry x="503.56" y="264.17" width="75.79" height="112.65" as="geometry"/>
                </mxCell>
                <mxCell id="66" value="" style="group" parent="1" vertex="1" connectable="0">
                    <mxGeometry x="389.56" y="248" width="107" height="145" as="geometry"/>
                </mxCell>
                <mxCell id="38" value="Your App's Info" style="rounded=0;whiteSpace=wrap;html=1;labelPosition=center;verticalLabelPosition=top;align=center;verticalAlign=bottom;" parent="66" vertex="1">
                    <mxGeometry width="107" height="145" as="geometry"/>
                </mxCell>
                <mxCell id="39" value="App ID: xxx&lt;br&gt;Team ID: xxx&lt;br&gt;Bundle ID: xxx" style="text;html=1;strokeColor=none;fillColor=none;align=left;verticalAlign=top;whiteSpace=wrap;rounded=0;" parent="66" vertex="1">
                    <mxGeometry x="4" y="12.5" width="98" height="120" as="geometry"/>
                </mxCell>
                <mxCell id="76" style="edgeStyle=none;html=1;entryX=1;entryY=0.75;entryDx=0;entryDy=0;startArrow=none;startFill=0;endArrow=classic;endFill=1;exitX=0;exitY=0.75;exitDx=0;exitDy=0;" parent="1" source="70" target="73" edge="1">
                    <mxGeometry relative="1" as="geometry"/>
                </mxCell>
                <mxCell id="77" value="給" style="edgeLabel;html=1;align=center;verticalAlign=middle;resizable=0;points=[];" parent="76" vertex="1" connectable="0">
                    <mxGeometry x="0.212" y="-1" relative="1" as="geometry">
                        <mxPoint as="offset"/>
                    </mxGeometry>
                </mxCell>
                <mxCell id="70" value="&lt;span style=&quot;&quot;&gt;p12&lt;/span&gt;" style="rounded=0;whiteSpace=wrap;html=1;" parent="1" vertex="1">
                    <mxGeometry x="332" y="963" width="74" height="38" as="geometry"/>
                </mxCell>
                <mxCell id="74" style="edgeStyle=none;html=1;entryX=1;entryY=0.5;entryDx=0;entryDy=0;startArrow=none;startFill=0;endArrow=classic;endFill=1;exitX=1;exitY=0.25;exitDx=0;exitDy=0;" parent="1" source="73" target="44" edge="1">
                    <mxGeometry relative="1" as="geometry"/>
                </mxCell>
                <mxCell id="75" value="install" style="edgeLabel;html=1;align=center;verticalAlign=middle;resizable=0;points=[];" parent="74" vertex="1" connectable="0">
                    <mxGeometry x="-0.2791" y="1" relative="1" as="geometry">
                        <mxPoint as="offset"/>
                    </mxGeometry>
                </mxCell>
                <mxCell id="73" value="&lt;span style=&quot;&quot;&gt;p12&lt;/span&gt;" style="rounded=0;whiteSpace=wrap;html=1;" parent="1" vertex="1">
                    <mxGeometry x="-351" y="923.5" width="74" height="38" as="geometry"/>
                </mxCell>
                <mxCell id="83" value="&lt;span style=&quot;&quot;&gt;p12&lt;/span&gt;" style="rounded=0;whiteSpace=wrap;html=1;" parent="1" vertex="1">
                    <mxGeometry x="-17" y="1489.5" width="74" height="38" as="geometry"/>
                </mxCell>
                <mxCell id="87" style="edgeStyle=none;html=1;startArrow=none;startFill=0;endArrow=classic;endFill=1;entryX=0.5;entryY=1;entryDx=0;entryDy=0;exitX=0;exitY=0.75;exitDx=0;exitDy=0;" parent="1" source="83" target="81" edge="1">
                    <mxGeometry relative="1" as="geometry">
                        <mxPoint x="171.09304809570312" y="1500.503261566162" as="targetPoint"/>
                    </mxGeometry>
                </mxCell>
                <mxCell id="88" value="install" style="edgeLabel;html=1;align=center;verticalAlign=middle;resizable=0;points=[];" parent="87" vertex="1" connectable="0">
                    <mxGeometry x="-0.2897" y="-1" relative="1" as="geometry">
                        <mxPoint as="offset"/>
                    </mxGeometry>
                </mxCell>
                <mxCell id="104" value="Firebase ( Development, Staging 環境)" style="rounded=1;whiteSpace=wrap;html=1;labelPosition=center;verticalLabelPosition=top;align=center;verticalAlign=bottom;fillColor=#d5e8d4;gradientColor=#97d077;strokeColor=#82b366;" parent="1" vertex="1">
                    <mxGeometry x="-1522" y="288" width="414" height="381" as="geometry"/>
                </mxCell>
                <mxCell id="106" value="內測 QA iPhone ( Device ID : device101 )" style="rounded=0;whiteSpace=wrap;html=1;labelPosition=center;verticalLabelPosition=top;align=center;verticalAlign=bottom;fillColor=#fff2cc;strokeColor=#d6b656;" parent="1" vertex="1">
                    <mxGeometry x="-1439" y="-237" width="257" height="201" as="geometry"/>
                </mxCell>
                <mxCell id="udy7D6bEetvilHj6OVsd-1" value="App" style="rounded=1;whiteSpace=wrap;html=1;" parent="1" vertex="1">
                    <mxGeometry x="-571.164424778761" y="813.9978571428571" width="145" height="67.07142857142857" as="geometry"/>
                </mxCell>
                <mxCell id="93" value="其他送審資料" style="rounded=1;whiteSpace=wrap;html=1;" parent="1" vertex="1">
                    <mxGeometry x="-667.17" y="814" width="96" height="67.07" as="geometry"/>
                </mxCell>
                <mxCell id="108" value="Provisioning Profile" style="rounded=0;whiteSpace=wrap;html=1;" parent="1" vertex="1">
                    <mxGeometry x="-47.5" y="1408" width="92" height="43" as="geometry"/>
                </mxCell>
                <mxCell id="149" value="use" style="edgeStyle=none;html=1;entryX=0.5;entryY=1;entryDx=0;entryDy=0;fontColor=#000000;startArrow=none;startFill=0;endArrow=classic;endFill=1;" parent="1" source="109" target="81" edge="1">
                    <mxGeometry relative="1" as="geometry"/>
                </mxCell>
                <mxCell id="109" value="fastlane&lt;br&gt;Source Code" style="rounded=0;whiteSpace=wrap;html=1;" parent="1" vertex="1">
                    <mxGeometry x="-159" y="1428" width="86.5" height="55" as="geometry"/>
                </mxCell>
                <mxCell id="122" style="edgeStyle=none;html=1;fontColor=#000000;" parent="1" source="111" target="123" edge="1">
                    <mxGeometry relative="1" as="geometry">
                        <mxPoint x="159.17431640625" y="-527.1666870117188" as="targetPoint"/>
                    </mxGeometry>
                </mxCell>
                <mxCell id="125" value="download" style="edgeLabel;html=1;align=center;verticalAlign=middle;resizable=0;points=[];fontColor=#000000;" parent="122" vertex="1" connectable="0">
                    <mxGeometry x="0.2847" relative="1" as="geometry">
                        <mxPoint as="offset"/>
                    </mxGeometry>
                </mxCell>
                <mxCell id="111" value="App" style="rounded=1;whiteSpace=wrap;html=1;" parent="1" vertex="1">
                    <mxGeometry x="123" y="-209" width="120" height="60" as="geometry"/>
                </mxCell>
                <mxCell id="124" value="" style="group" parent="1" vertex="1" connectable="0">
                    <mxGeometry x="454" y="-292" width="142" height="162" as="geometry"/>
                </mxCell>
                <mxCell id="123" value="" style="rounded=0;whiteSpace=wrap;html=1;labelBackgroundColor=#FFFFFF;fontColor=#000000;gradientColor=none;strokeColor=none;" parent="124" vertex="1">
                    <mxGeometry width="142" height="162" as="geometry"/>
                </mxCell>
                <mxCell id="113" value="" style="verticalLabelPosition=bottom;sketch=0;aspect=fixed;html=1;verticalAlign=top;strokeColor=none;align=center;outlineConnect=0;shape=mxgraph.citrix.access_card;labelBackgroundColor=#FFFFFF;fontColor=#000000;gradientColor=none;" parent="124" vertex="1">
                    <mxGeometry x="3" y="4" width="55.5" height="75" as="geometry"/>
                </mxCell>
                <mxCell id="114" value="" style="verticalLabelPosition=bottom;sketch=0;aspect=fixed;html=1;verticalAlign=top;strokeColor=none;align=center;outlineConnect=0;shape=mxgraph.citrix.access_card;labelBackgroundColor=#FFFFFF;fontColor=#000000;gradientColor=none;" parent="124" vertex="1">
                    <mxGeometry x="13" y="14" width="55.5" height="75" as="geometry"/>
                </mxCell>
                <mxCell id="115" value="" style="verticalLabelPosition=bottom;sketch=0;aspect=fixed;html=1;verticalAlign=top;strokeColor=none;align=center;outlineConnect=0;shape=mxgraph.citrix.access_card;labelBackgroundColor=#FFFFFF;fontColor=#000000;gradientColor=none;" parent="124" vertex="1">
                    <mxGeometry x="23" y="24" width="55.5" height="75" as="geometry"/>
                </mxCell>
                <mxCell id="116" value="" style="verticalLabelPosition=bottom;sketch=0;aspect=fixed;html=1;verticalAlign=top;strokeColor=none;align=center;outlineConnect=0;shape=mxgraph.citrix.access_card;labelBackgroundColor=#FFFFFF;fontColor=#000000;gradientColor=none;" parent="124" vertex="1">
                    <mxGeometry x="33" y="34" width="55.5" height="75" as="geometry"/>
                </mxCell>
                <mxCell id="117" value="" style="verticalLabelPosition=bottom;sketch=0;aspect=fixed;html=1;verticalAlign=top;strokeColor=none;align=center;outlineConnect=0;shape=mxgraph.citrix.access_card;labelBackgroundColor=#FFFFFF;fontColor=#000000;gradientColor=none;" parent="124" vertex="1">
                    <mxGeometry x="43" y="44" width="55.5" height="75" as="geometry"/>
                </mxCell>
                <mxCell id="118" value="" style="verticalLabelPosition=bottom;sketch=0;aspect=fixed;html=1;verticalAlign=top;strokeColor=none;align=center;outlineConnect=0;shape=mxgraph.citrix.access_card;labelBackgroundColor=#FFFFFF;fontColor=#000000;gradientColor=none;" parent="124" vertex="1">
                    <mxGeometry x="53" y="54" width="55.5" height="75" as="geometry"/>
                </mxCell>
                <mxCell id="119" value="" style="verticalLabelPosition=bottom;sketch=0;aspect=fixed;html=1;verticalAlign=top;strokeColor=none;align=center;outlineConnect=0;shape=mxgraph.citrix.access_card;labelBackgroundColor=#FFFFFF;fontColor=#000000;gradientColor=none;" parent="124" vertex="1">
                    <mxGeometry x="63" y="64" width="55.5" height="75" as="geometry"/>
                </mxCell>
                <mxCell id="120" value="" style="verticalLabelPosition=bottom;sketch=0;aspect=fixed;html=1;verticalAlign=top;strokeColor=none;align=center;outlineConnect=0;shape=mxgraph.citrix.access_card;labelBackgroundColor=#FFFFFF;fontColor=#000000;gradientColor=none;" parent="124" vertex="1">
                    <mxGeometry x="73" y="74" width="55.5" height="75" as="geometry"/>
                </mxCell>
                <mxCell id="121" value="" style="verticalLabelPosition=bottom;sketch=0;aspect=fixed;html=1;verticalAlign=top;strokeColor=none;align=center;outlineConnect=0;shape=mxgraph.citrix.access_card;labelBackgroundColor=#FFFFFF;fontColor=#000000;gradientColor=none;" parent="124" vertex="1">
                    <mxGeometry x="83" y="84" width="55.5" height="75" as="geometry"/>
                </mxCell>
                <mxCell id="132" value="&lt;span style=&quot;&quot;&gt;Development Cert&lt;/span&gt;" style="rounded=0;whiteSpace=wrap;html=1;fillColor=#dae8fc;strokeColor=#6c8ebf;" parent="1" vertex="1">
                    <mxGeometry x="219.56" y="524" width="127" height="40" as="geometry"/>
                </mxCell>
                <mxCell id="133" value="&lt;span style=&quot;&quot;&gt;Distribution Cert&lt;/span&gt;" style="rounded=0;whiteSpace=wrap;html=1;fillColor=#f8cecc;strokeColor=#b85450;" parent="1" vertex="1">
                    <mxGeometry x="357.56" y="524" width="127" height="40" as="geometry"/>
                </mxCell>
                <mxCell id="138" style="edgeStyle=none;html=1;entryX=0.5;entryY=1;entryDx=0;entryDy=0;fontColor=#000000;" parent="1" source="136" target="134" edge="1">
                    <mxGeometry relative="1" as="geometry"/>
                </mxCell>
                <mxCell id="Pc43Av3YYR_3kN6ACJ1--155" style="rounded=0;orthogonalLoop=1;jettySize=auto;html=1;entryX=1;entryY=0.5;entryDx=0;entryDy=0;" parent="1" source="136" target="Pc43Av3YYR_3kN6ACJ1--157" edge="1">
                    <mxGeometry relative="1" as="geometry"/>
                </mxCell>
                <mxCell id="Pc43Av3YYR_3kN6ACJ1--156" value="給 QA 測" style="edgeLabel;html=1;align=center;verticalAlign=middle;resizable=0;points=[];" parent="Pc43Av3YYR_3kN6ACJ1--155" vertex="1" connectable="0">
                    <mxGeometry x="0.258" y="1" relative="1" as="geometry">
                        <mxPoint as="offset"/>
                    </mxGeometry>
                </mxCell>
                <mxCell id="136" value="ipa&lt;br&gt;描述資料&lt;br&gt;測試內容" style="rounded=1;whiteSpace=wrap;html=1;" parent="1" vertex="1">
                    <mxGeometry x="-837" y="804.5" width="89" height="67" as="geometry"/>
                </mxCell>
                <mxCell id="139" style="edgeStyle=none;html=1;entryX=0.75;entryY=1;entryDx=0;entryDy=0;fontColor=#000000;dashed=1;exitX=0.25;exitY=0;exitDx=0;exitDy=0;" parent="1" source="136" target="141" edge="1">
                    <mxGeometry relative="1" as="geometry">
                        <mxPoint x="-819" y="287.9999999999998" as="targetPoint"/>
                    </mxGeometry>
                </mxCell>
                <mxCell id="Pc43Av3YYR_3kN6ACJ1--159" value="沒在用" style="edgeLabel;html=1;align=center;verticalAlign=middle;resizable=0;points=[];" parent="139" vertex="1" connectable="0">
                    <mxGeometry x="0.4035" y="-4" relative="1" as="geometry">
                        <mxPoint as="offset"/>
                    </mxGeometry>
                </mxCell>
                <mxCell id="141" value="外側 Beta&lt;br&gt;(我們沒在用)" style="rounded=0;whiteSpace=wrap;html=1;labelBackgroundColor=#FFFFFF;fontColor=#000000;gradientColor=none;labelPosition=center;verticalLabelPosition=top;align=center;verticalAlign=bottom;" parent="1" vertex="1">
                    <mxGeometry x="-947" y="-51" width="157" height="99.73" as="geometry"/>
                </mxCell>
                <mxCell id="60" style="edgeStyle=none;html=1;startArrow=none;startFill=0;endArrow=classic;endFill=1;exitX=0.75;exitY=0;exitDx=0;exitDy=0;" parent="1" source="54" target="57" edge="1">
                    <mxGeometry relative="1" as="geometry"/>
                </mxCell>
                <mxCell id="61" value="config" style="edgeLabel;html=1;align=center;verticalAlign=middle;resizable=0;points=[];" parent="60" vertex="1" connectable="0">
                    <mxGeometry x="0.4106" y="2" relative="1" as="geometry">
                        <mxPoint as="offset"/>
                    </mxGeometry>
                </mxCell>
                <mxCell id="67" value="upload with $$" style="edgeLabel;html=1;align=center;verticalAlign=middle;resizable=0;points=[];" parent="60" vertex="1" connectable="0">
                    <mxGeometry x="-0.607" relative="1" as="geometry">
                        <mxPoint as="offset"/>
                    </mxGeometry>
                </mxCell>
                <mxCell id="op3rBLOCOqfQ3nE_6FgC-152" style="edgeStyle=none;html=1;entryX=1;entryY=0.25;entryDx=0;entryDy=0;startArrow=classic;startFill=1;endArrow=none;endFill=0;exitX=0;exitY=0.5;exitDx=0;exitDy=0;" parent="1" source="73" target="45" edge="1">
                    <mxGeometry relative="1" as="geometry">
                        <Array as="points"/>
                        <mxPoint x="-342" y="875.5" as="sourcePoint"/>
                        <mxPoint x="-439" y="985.5" as="targetPoint"/>
                    </mxGeometry>
                </mxCell>
                <mxCell id="op3rBLOCOqfQ3nE_6FgC-153" value="use auto with portal" style="edgeLabel;html=1;align=center;verticalAlign=middle;resizable=0;points=[];" parent="op3rBLOCOqfQ3nE_6FgC-152" vertex="1" connectable="0">
                    <mxGeometry x="-0.338" y="3" relative="1" as="geometry">
                        <mxPoint x="20" y="24" as="offset"/>
                    </mxGeometry>
                </mxCell>
                <mxCell id="Pc43Av3YYR_3kN6ACJ1--157" value="內側 Alpha&lt;br&gt;Dev, Str 的設定" style="rounded=0;whiteSpace=wrap;html=1;labelBackgroundColor=#FFFFFF;fontColor=#000000;gradientColor=none;labelPosition=center;verticalLabelPosition=top;align=center;verticalAlign=bottom;" parent="1" vertex="1">
                    <mxGeometry x="-1349" y="428.63" width="157" height="99.73" as="geometry"/>
                </mxCell>
                <mxCell id="Pc43Av3YYR_3kN6ACJ1--161" value="自動化機器簡單審核&amp;nbsp;" style="rounded=1;whiteSpace=wrap;html=1;" parent="1" vertex="1">
                    <mxGeometry x="-625" y="-23.27000000000004" width="96" height="67.07" as="geometry"/>
                </mxCell>
                <mxCell id="Pc43Av3YYR_3kN6ACJ1--163" style="rounded=0;orthogonalLoop=1;jettySize=auto;html=1;" parent="1" source="Pc43Av3YYR_3kN6ACJ1--162" target="53" edge="1">
                    <mxGeometry relative="1" as="geometry"/>
                </mxCell>
                <mxCell id="Pc43Av3YYR_3kN6ACJ1--162" value="審查的文件" style="rounded=1;whiteSpace=wrap;html=1;" parent="1" vertex="1">
                    <mxGeometry x="-524" y="713.4300000000001" width="96" height="67.07" as="geometry"/>
                </mxCell>
            </root>
        </mxGraphModel>
    </diagram>
</mxfile>